<?xml version="1.0" encoding="utf-8"?>
<!-- Generator: Adobe Illustrator 21.0.2, SVG Export Plug-In . SVG Version: 6.00 Build 0)  -->
<svg version="1.1" xmlns="http://www.w3.org/2000/svg" xmlns:xlink="http://www.w3.org/1999/xlink" x="0px" y="0px"
	 viewBox="0 0 36 36" style="enable-background:new 0 0 36 36;" xml:space="preserve">
<g>
	<path d="M18,21.6c2,0,3.6-1.6,3.6-3.6c0-0.8-0.3-1.5-0.7-2.1c-0.7-0.9-1.7-1.5-2.9-1.5c-1.2,0-2.3,0.6-2.9,1.5
		c-0.4,0.6-0.7,1.3-0.7,2.1C14.4,20,16,21.6,18,21.6"/>
</g>
<polygon points="25.9,13.6 25.9,10.1 25.4,10.1 22.4,10.1 22.4,13.6 "/>
<g>
	<path d="M28.2,15.9v8.4c0,2.2-1.8,4-4,4H11.7c-2.2,0-4-1.8-4-4V11.7c0-2.2,1.8-4,4-4h12.6c2.2,0,4,1.8,4,4V15.9z M18,0
		C8.1,0,0,8.1,0,18c0,9.9,8.1,18,18,18c9.9,0,18-8.1,18-18C36,8.1,27.9,0,18,0"/>
	<path d="M23.6,18c0,3.1-2.5,5.6-5.6,5.6c-3.1,0-5.6-2.5-5.6-5.6c0-0.7,0.1-1.5,0.4-2.1H9.8v8.4c0,1.1,0.9,2,2,2h12.6
		c1.1,0,2-0.9,2-2v-8.4h-3.1C23.4,16.5,23.6,17.3,23.6,18"/>
</g>
</svg>
