<?xml version="1.0" encoding="utf-8"?>
<!-- Generator: Adobe Illustrator 21.0.2, SVG Export Plug-In . SVG Version: 6.00 Build 0)  -->
<svg version="1.1" id="Calque_1" xmlns="http://www.w3.org/2000/svg" xmlns:xlink="http://www.w3.org/1999/xlink" x="0px" y="0px"
	 viewBox="0 0 36 36" style="enable-background:new 0 0 36 36;" xml:space="preserve">
<g>
	<path d="M18.7,16.9L18.7,16.9C18.6,16.9,18.7,16.9,18.7,16.9L18.7,16.9z M21.3,15.4c-1.5,0-2.2,0.8-2.6,1.4v-1.2h-2.9
		c0,0.8,0,8.7,0,8.7h2.9v-4.9c0-0.3,0-0.5,0.1-0.7c0.2-0.5,0.7-1.1,1.5-1.1c1,0,1.5,0.8,1.5,2v4.7h2.9v-5
		C24.6,16.7,23.2,15.4,21.3,15.4"/>
</g>
<rect x="11.3" y="15.6" width="2.9" height="8.7"/>
<g>
	<path d="M27.5,26.1c0,0.8-0.6,1.4-1.4,1.4H9.8c-0.8,0-1.4-0.6-1.4-1.4V9.6c0-0.8,0.6-1.4,1.4-1.4h16.4c0.8,0,1.4,0.6,1.4,1.4V26.1z
		 M18,0C8.1,0,0,8.1,0,18c0,9.9,8.1,18,18,18c9.9,0,18-8.1,18-18C36,8.1,27.9,0,18,0"/>
	<path d="M12.7,11.4c-1,0-1.6,0.7-1.6,1.5c0,0.8,0.6,1.5,1.6,1.5h0c1,0,1.6-0.7,1.6-1.5C14.3,12.1,13.7,11.4,12.7,11.4"/>
</g>
</svg>
