<?xml version="1.0" encoding="utf-8"?>
<!-- Generator: Adobe Illustrator 21.0.2, SVG Export Plug-In . SVG Version: 6.00 Build 0)  -->
<svg version="1.1" id="Calque_1" xmlns="http://www.w3.org/2000/svg" xmlns:xlink="http://www.w3.org/1999/xlink" x="0px" y="0px"
	 viewBox="0 0 36 36" style="enable-background:new 0 0 36 36;" xml:space="preserve">
<path d="M18,0C8,0,0,8.1,0,18s8.1,18,18,18s18-8.1,18-18S27.9,0,18,0z M19.9,24.2c-1.5,0-2.8-0.7-3.3-1.6c0,0-0.7,3-0.9,3.6
	c-0.6,2-2.3,4-2.4,4.2c-0.1,0.1-0.3,0.1-0.3-0.1c-0.1-0.2-0.5-2.8,0-4.9l1.7-7c0,0-0.4-0.8-0.4-2c0-1.9,1.2-3.3,2.6-3.3
	c1.2,0,1.8,0.8,1.8,1.9c0,1.2-0.8,3-1.2,4.6c-0.3,1.4,0.7,2.5,2.1,2.5c2.5,0,4.2-3.2,4.2-6.9c0-2.9-2-5-5.6-5
	c-4.1,0-6.6,2.9-6.6,6.2c0,1.1,0.4,1.9,0.9,2.5c0.3,0.3,0.3,0.4,0.2,0.7l-0.3,1c-0.1,0.3-0.4,0.4-0.7,0.3C9.9,20.2,9,18.2,9,16
	c0-3.7,3.2-8.1,9.5-8.1c5.1,0,8.5,3.6,8.6,7.4C27.1,20.4,24.2,24.2,19.9,24.2z"/>
</svg>
