<?xml version="1.0" encoding="utf-8"?>
<!-- Generator: Adobe Illustrator 21.0.2, SVG Export Plug-In . SVG Version: 6.00 Build 0)  -->
<svg version="1.1" id="Calque_1" xmlns="http://www.w3.org/2000/svg" xmlns:xlink="http://www.w3.org/1999/xlink" x="0px" y="0px"
	 viewBox="0 0 467.5 88.6" style="enable-background:new 0 0 467.5 88.6;" xml:space="preserve">
<style type="text/css">
	.st0{fill:#FFFFFF;}
</style>
<g>
	<path class="st0" d="M25.8,32.5V9.4V7.4c-0.3,0.6-0.6,1.3-0.9,1.9L14.8,33L5,9.4C4.7,8.7,4.5,8.1,4.2,7.5v1.9v23.1H1.8V1h2.1
		l10.2,24.2c0.3,0.7,0.6,1.3,0.9,2c0.3-0.7,0.6-1.3,0.9-2L26.1,1h2.1v31.5H25.8z"/>
	<path class="st0" d="M49.7,29.6c-1.8,2.1-4.4,3.5-7,3.5c-4.5,0-7.6-2.7-7.6-7.6c0-5.1,3.8-7.4,8.1-7.4c2.2,0,4.3,0.6,6.5,1.9v-2.7
		c0-5-2.6-6.1-5.3-6.1c-2.4,0-5.1,1.2-6.9,2.3l-0.7-2.1c1.8-1.1,4.7-2.4,7.8-2.4c3.2,0,7.4,1.4,7.4,7.7v15.8h-2.3V29.6z M49.7,26.9
		v-4.7c-1.6-1.1-4-2.1-6.3-2.1c-3.1,0-5.9,1.7-5.9,5.3c0,3.3,2,5.5,5.4,5.5C45.9,30.9,48.2,28.8,49.7,26.9z"/>
	<path class="st0" d="M64.7,20.5l-7.2-11h2.6l4.7,7.2c0.4,0.7,0.8,1.3,1.2,1.9l1.2-1.9l4.7-7.2h2.6l-7.2,11l7.8,12h-2.6l-5.3-8.1
		L66,22.5c-0.4,0.7-0.8,1.3-1.2,1.9l-5.3,8.1h-2.6L64.7,20.5z"/>
	<path class="st0" d="M108.2,24H95.4l-2.9,8.5H90L100.9,1h1.8l10.9,31.5h-2.5L108.2,24z M103.1,8.9c-0.3-0.8-1-3-1.3-4
		c-0.2,1-1,3.3-1.2,4l-4.5,13h11.4L103.1,8.9z"/>
	<path class="st0" d="M119.8,1.2l2.4-1.2v32.5h-2.4V1.2z"/>
	<path class="st0" d="M129.7,1.2l2.4-1.2v32.5h-2.4V1.2z"/>
	<path class="st0" d="M139.2,2.7c0-1,0.7-1.8,1.7-1.8c1,0,1.7,0.8,1.7,1.8c0,0.9-0.7,1.7-1.7,1.7C139.9,4.4,139.2,3.6,139.2,2.7z
		 M139.7,9.5h2.4v23h-2.4V9.5z"/>
	<path class="st0" d="M155.2,20.5l-7.2-11h2.6l4.7,7.2c0.4,0.7,0.8,1.3,1.2,1.9l1.2-1.9l4.7-7.2h2.6l-7.2,11l7.8,12H163l-5.3-8.1
		l-1.2-1.9c-0.4,0.7-0.8,1.3-1.2,1.9l-5.3,8.1h-2.6L155.2,20.5z"/>
	<path class="st0" d="M172.9,33.3c-1.4,0-2.4-0.9-2.4-2.1c0-1.3,0.9-2.2,2-2.2c1.2,0,2.4,0.9,2.4,2.9c0,3-1.5,5.7-3.2,6.9l-0.6-0.2
		C172,37.4,172.9,35.5,172.9,33.3z"/>
	<path class="st0" d="M14.6,76.6c-1.8,2.1-4.4,3.5-7,3.5C3,80,0,77.4,0,72.4C0,67.2,3.8,65,8.1,65c2.2,0,4.3,0.6,6.5,1.9v-2.7
		c0-5-2.6-6.1-5.3-6.1c-2.4,0-5.1,1.2-6.9,2.3l-0.7-2.1C3.5,57.3,6.3,56,9.5,56c3.2,0,7.4,1.4,7.4,7.7v15.8h-2.3V76.6z M14.6,73.9
		v-4.7c-1.6-1.1-4-2.1-6.3-2.1c-3.1,0-5.9,1.7-5.9,5.3c0,3.3,2,5.5,5.4,5.5C10.8,77.9,13.1,75.8,14.6,73.9z"/>
	<path class="st0" d="M23.9,56.5h2.4v4c1.5-3.1,4.1-4.6,6.4-4.6c1.3,0,2.3,0.4,3,0.9l-0.4,2.3c-0.6-0.4-1.6-0.8-3-0.8
		c-2.4,0-6,2-6,8.2v12.9h-2.4V56.5z"/>
	<path class="st0" d="M38.7,68c0-7.6,3.4-12.1,9-12.1c3.3,0,5.8,1.7,7.1,4.8l-2.2,0.9c-0.8-2.1-2.4-3.5-4.9-3.5
		c-4.4,0-6.4,3.6-6.4,9.9c0,6.2,2.2,9.8,6.2,9.8c2.6,0,4.6-1.5,5.4-3.9l2.2,0.9c-1,3.2-4,5.3-7.7,5.3C42.1,80,38.7,75.7,38.7,68z"/>
	<path class="st0" d="M60.6,48.1L63,47v12.8c1.3-2.7,4-3.9,6.3-3.9c5.2,0,7.8,3.1,7.8,10.1v13.4h-2.4V65.3c0-5.2-2.3-7.2-5.6-7.2
		c-3.5,0-6.2,1.9-6.2,7.6v13.8h-2.4V48.1z"/>
	<path class="st0" d="M84,49.7c0-1,0.7-1.8,1.7-1.8c1,0,1.7,0.8,1.7,1.8c0,0.9-0.7,1.7-1.7,1.7C84.7,51.4,84,50.6,84,49.7z
		 M84.5,56.5h2.4v23h-2.4V56.5z"/>
	<path class="st0" d="M95.9,74.8V58.7H92v-2.2h3.9v-8.3l2.4-1.2v9.5h5.8v2.2h-5.8V74c0,2.2,0.4,3.7,2.6,3.7c1.4,0,2.6-0.7,3.4-1.2
		l-0.3,2.5c-1,0.6-2.3,1-3.8,1C97.1,80,95.9,77.8,95.9,74.8z"/>
	<path class="st0" d="M108.1,68c0-7.6,4-12,9.6-12c4.9,0,8.7,3.5,8.7,11.6c0,0.3,0,0.8,0,1.4h-15.7c0.4,5.8,3,8.9,7.2,8.9
		c1.7,0,3.6-0.5,5.3-1.8l1.3,1.6c-1.7,1.4-4.2,2.5-6.7,2.5C111.6,80,108.1,74.9,108.1,68z M123.9,66.7c0-7-3.6-8.6-6.3-8.6
		c-3.9,0-6.8,2.7-7.1,8.6H123.9z"/>
	<path class="st0" d="M131.3,68c0-7.6,3.4-12.1,9-12.1c3.3,0,5.8,1.7,7.1,4.8l-2.2,0.9c-0.8-2.1-2.4-3.5-4.9-3.5
		c-4.4,0-6.4,3.6-6.4,9.9c0,6.2,2.2,9.8,6.2,9.8c2.6,0,4.6-1.5,5.4-3.9l2.2,0.9c-1,3.2-4,5.3-7.7,5.3C134.6,80,131.3,75.7,131.3,68z
		"/>
	<path class="st0" d="M155.2,74.8V58.7h-3.9v-2.2h3.9v-8.3l2.4-1.2v9.5h5.8v2.2h-5.8V74c0,2.2,0.4,3.7,2.6,3.7
		c1.4,0,2.6-0.7,3.4-1.2l-0.3,2.5c-1,0.6-2.3,1-3.8,1C156.4,80,155.2,77.8,155.2,74.8z"/>
	<path class="st0" d="M167.4,68c0-7.6,4-12,9.6-12c4.9,0,8.7,3.5,8.7,11.6c0,0.3,0,0.8,0,1.4h-15.7c0.4,5.8,3,8.9,7.2,8.9
		c1.7,0,3.6-0.5,5.3-1.8l1.3,1.6c-1.7,1.4-4.2,2.5-6.7,2.5C170.9,80,167.4,74.9,167.4,68z M183.2,66.7c0-7-3.6-8.6-6.3-8.6
		c-3.9,0-6.8,2.7-7.1,8.6H183.2z"/>
	<path class="st0" d="M201.1,68c0-7.6,3.5-12,9.3-12c3.1,0,5,1.5,6.3,3V48.2l2.4-1.2v32.5h-2.4v-2.7c-1.6,2-3.8,3.2-6.5,3.2
		C204.6,80,201.1,75.3,201.1,68z M216.7,73.6V62.2c-1-1.7-3.1-4-6.2-4c-4.5,0-6.9,3.6-6.9,9.8c0,5.4,2.7,9.8,6.9,9.8
		C213,77.8,215.4,76.1,216.7,73.6z"/>
	<path class="st0" d="M226.2,49.7c0-1,0.7-1.8,1.7-1.8c1,0,1.7,0.8,1.7,1.8c0,0.9-0.7,1.7-1.7,1.7C226.9,51.4,226.2,50.6,226.2,49.7
		z M226.7,56.5h2.4v23h-2.4V56.5z"/>
	<path class="st0" d="M239,76.4v11l-2.4,1.2V56.5h2.4v2.7c1.5-2,3.6-3.2,6.7-3.2c5.7,0,9.1,4.8,9.1,12c0,7.7-3.8,12.1-9.3,12.1
		C242.5,80,240.3,78.6,239,76.4z M252.3,68c0-5.9-2.6-9.8-7-9.8c-2.6,0-5,1.5-6.3,4v11.4c1.5,2.5,3.7,4.2,6.3,4.2
		C249.8,77.8,252.3,74.3,252.3,68z"/>
	<path class="st0" d="M261.1,48.2l2.4-1.2v32.5h-2.4V48.2z"/>
	<path class="st0" d="M269.8,68c0-7.6,3.8-12.1,9.4-12.1s9.5,4.4,9.5,12c0,7.6-3.8,12.1-9.5,12.1S269.8,75.7,269.8,68z M286.3,68
		c0-6.1-2.4-9.8-7-9.8c-4.5,0-6.9,3.5-6.9,9.9c0,6.1,2.4,9.8,6.9,9.8C283.7,77.8,286.3,74.1,286.3,68z"/>
	<path class="st0" d="M321.9,65.2c0-3.1-0.7-7.1-5.4-7.1c-3.7,0-5.7,3.3-5.7,7.1v14.3h-2.4V65.2c0-3.1-0.7-7.1-5.3-7.1
		c-3.9,0-5.8,3-5.8,7.1v14.3H295v-23h2.4v3c1.4-2.4,3.8-3.6,6.3-3.6c2.7,0,5.2,1.5,6.3,4.5c1.2-2.8,3.8-4.5,6.8-4.5
		c4.5,0,7.6,3.1,7.6,8v15.6h-2.4V65.2z"/>
	<path class="st0" d="M330.4,68c0-7.6,4-12,9.6-12c4.9,0,8.7,3.5,8.7,11.6c0,0.3,0,0.8,0,1.4h-15.8c0.4,5.8,3,8.9,7.2,8.9
		c1.7,0,3.6-0.5,5.3-1.8l1.3,1.6c-1.7,1.4-4.2,2.5-6.7,2.5C334,80,330.4,74.9,330.4,68z M346.3,66.7c0-7-3.6-8.6-6.3-8.6
		c-3.9,0-6.8,2.7-7.1,8.6H346.3z M342.9,46.6h3.6l-7.8,7h-2.4L342.9,46.6z"/>
	<path class="st0" d="M364.2,68c0-7.6,3.5-12,9.3-12c3.1,0,5,1.5,6.3,3V48.2l2.4-1.2v32.5h-2.4v-2.7c-1.6,2-3.8,3.2-6.5,3.2
		C367.6,80,364.2,75.3,364.2,68z M379.8,73.6V62.2c-1-1.7-3.1-4-6.2-4c-4.5,0-6.9,3.6-6.9,9.8c0,5.4,2.7,9.8,6.9,9.8
		C376.1,77.8,378.5,76.1,379.8,73.6z"/>
	<path class="st0" d="M391.2,51.7c-1.3,0-2.4-0.9-2.4-2.1c0-1.3,0.9-2.2,2-2.2c1.2,0,2.4,0.8,2.4,2.9c0,3-1.5,5.6-3.2,6.9l-0.6-0.2
		C390.3,55.9,391.2,54,391.2,51.7z"/>
	<path class="st0" d="M395.6,68c0-7.6,4-12,9.6-12c4.9,0,8.7,3.5,8.7,11.6c0,0.3,0,0.8,0,1.4h-15.8c0.4,5.8,3,8.9,7.2,8.9
		c1.7,0,3.6-0.5,5.3-1.8l1.3,1.6c-1.7,1.4-4.2,2.5-6.8,2.5C399.1,80,395.6,74.9,395.6,68z M411.4,66.7c0-7-3.6-8.6-6.3-8.6
		c-3.9,0-6.8,2.7-7.1,8.6H411.4z M408.1,46.6h3.6l-7.8,7h-2.4L408.1,46.6z"/>
	<path class="st0" d="M421,74.8V58.7h-3.9v-2.2h3.9v-8.3l2.4-1.2v9.5h5.8v2.2h-5.8V74c0,2.2,0.4,3.7,2.6,3.7c1.4,0,2.6-0.7,3.4-1.2
		l-0.3,2.5c-1,0.6-2.3,1-3.8,1C422.2,80,421,77.8,421,74.8z"/>
	<path class="st0" d="M448.6,76.6c-1.8,2.1-4.4,3.5-7,3.5c-4.5,0-7.6-2.7-7.6-7.6c0-5.1,3.8-7.4,8.1-7.4c2.2,0,4.3,0.6,6.5,1.9v-2.7
		c0-5-2.6-6.1-5.3-6.1c-2.4,0-5.1,1.2-6.9,2.3l-0.7-2.1c1.8-1.1,4.7-2.4,7.8-2.4c3.2,0,7.4,1.4,7.4,7.7v15.8h-2.3V76.6z M448.6,73.9
		v-4.7c-1.6-1.1-4-2.1-6.3-2.1c-3.2,0-5.9,1.7-5.9,5.3c0,3.3,2,5.5,5.4,5.5C444.9,77.9,447.1,75.8,448.6,73.9z"/>
	<path class="st0" d="M459.1,74.8V58.7h-3.9v-2.2h3.9v-8.3l2.4-1.2v9.5h5.8v2.2h-5.8V74c0,2.2,0.4,3.7,2.6,3.7
		c1.4,0,2.6-0.7,3.4-1.2l-0.3,2.5c-1,0.6-2.3,1-3.8,1C460.2,80,459.1,77.8,459.1,74.8z"/>
</g>
</svg>
