<?xml version="1.0" encoding="utf-8"?>
<!-- Generator: Adobe Illustrator 21.0.2, SVG Export Plug-In . SVG Version: 6.00 Build 0)  -->
<svg version="1.1" id="Calque_1" xmlns="http://www.w3.org/2000/svg" xmlns:xlink="http://www.w3.org/1999/xlink" x="0px" y="0px"
	 viewBox="0 0 1228.3 180.6" style="enable-background:new 0 0 1228.3 180.6;" xml:space="preserve">
<style type="text/css">
	.st0{fill:#FFFFFF;}
</style>
<path d="M300.6,146.3h-67.3l-13.2,34.3h-44.6L247.4,0h39l72.2,180.6H314L300.6,146.3z M272.2,72.5c-1.8-4.4-4.1-10.3-5.4-14.7
	c-1,4.4-3.6,10.6-5.2,14.7l-14.7,36.1h40L272.2,72.5z"/>
<path d="M446.9,124.9L410,180.6h-48l60.9-92.9L365.3,0h48l33.5,50.8L480.1,0h48.3l-57.5,87.7l60.9,92.9h-48L446.9,124.9z"/>
<path d="M661.8,146.3h-67.3l-13.2,34.3h-44.6L608.6,0h39l72.2,180.6h-44.6L661.8,146.3z M633.4,72.5c-1.8-4.4-4.1-10.3-5.4-14.7
	c-1,4.4-3.6,10.6-5.2,14.7l-14.7,36.1h40L633.4,72.5z"/>
<path d="M725.5,0h40.8v141.1h86.4v39.5H725.5V0z"/>
<path d="M865.3,0H906v141.1h86.4v39.5H865.3V0z"/>
<path d="M1005.4,0h40.8v180.6h-40.8V0z"/>
<path d="M1143.4,124.9l-36.9,55.7h-48l60.9-92.9L1061.9,0h48l33.5,50.8L1176.7,0h48.3l-57.5,87.7l60.9,92.9h-48L1143.4,124.9z"/>
<path d="M134.2,0L91.3,89.8c-1.8,3.9-2.8,7.5-4.1,10.8c-1.3-3.4-2.6-7-4.4-10.8L41.5,0H0v180.6h40.8V92.1v-2.8c1,2.6,0.5,1.8,1,2.8
	l42.9,88.5h3l42.4-89c0.5-0.8,0.3,0.3,1.3-2.3v2.8v88.5h40.8V0H134.2z"/>
</svg>
